<?xml version="1.0" standalone="no"?>
<!DOCTYPE svg PUBLIC "-//W3C//DTD SVG 20010904//EN"
 "http://www.w3.org/TR/2001/REC-SVG-20010904/DTD/svg10.dtd">
<svg version="1.0" xmlns="http://www.w3.org/2000/svg"
 width="700.000000pt" height="700.000000pt" viewBox="0 0 700.000000 700.000000"
 preserveAspectRatio="xMidYMid meet">
<metadata>
Created by potrace 1.11, written by Peter Selinger 2001-2013
</metadata>
<g transform="translate(0.000000,700.000000) scale(0.100000,-0.100000)"
fill="#000000" stroke="none">
<path d="M2433 6494 c-23 -9 -61 -33 -83 -55 -130 -126 -99 -323 62 -403 49
-25 60 -26 203 -26 l152 0 -1 -782 -1 -783 -345 -542 c-190 -298 -350 -550
-355 -560 -6 -10 -22 -36 -37 -58 -59 -90 -468 -737 -468 -741 0 -3 -5 -10
-11 -17 -5 -7 -87 -133 -181 -282 -93 -148 -189 -299 -212 -335 -24 -36 -81
-126 -127 -200 -46 -74 -86 -137 -89 -140 -13 -11 -154 -246 -189 -313 -59
-112 -71 -154 -78 -277 -4 -70 -1 -96 16 -148 58 -171 179 -266 391 -307 64
-12 413 -14 2470 -12 2265 2 2398 3 2454 20 102 30 184 76 239 131 47 48 60
68 95 146 46 103 31 267 -37 412 -35 75 -59 116 -167 285 -45 71 -188 297
-319 503 -130 206 -265 418 -299 471 -33 52 -66 104 -73 115 -6 10 -47 74 -90
142 -43 67 -105 165 -138 217 -33 52 -107 169 -165 260 -58 91 -111 175 -118
187 -7 13 -30 49 -50 81 -20 31 -167 262 -326 512 l-289 455 1 758 c0 416 1
767 1 780 1 22 3 22 145 22 80 0 158 5 177 11 89 30 164 123 174 215 11 101
-58 212 -156 252 -50 21 -55 21 -1092 21 -895 -1 -1048 -3 -1084 -15z m1333
-1336 l-1 -853 21 -30 c12 -16 95 -147 186 -290 91 -143 337 -532 547 -863
210 -332 381 -606 378 -608 -2 -2 -625 -3 -1385 -2 l-1382 3 76 120 c42 66 92
145 111 175 20 30 46 72 59 93 13 20 35 54 48 75 13 20 68 107 122 192 53 85
116 184 139 220 64 101 206 323 250 394 22 35 75 119 118 187 44 68 109 172
147 231 l68 107 0 843 c0 464 1 846 1 851 1 4 113 7 249 7 l248 0 0 -852z"/>
</g>
</svg>
